<?xml version="1.0" encoding="UTF-8"?><svg id="Vrstva_2" xmlns="http://www.w3.org/2000/svg" viewBox="0 0 230.68 41.3"><g id="Vrstva_1-2"><path d="M0,4.85h15.38c3.75,0,6.78,1.1,8.7,3.02,1.56,1.56,2.29,3.39,2.29,5.68v.09c0,3.75-2.01,5.95-4.4,7.23,3.85,1.47,6.23,3.75,6.23,8.24v.09c0,6.14-4.95,9.25-12.36,9.25H0V4.85ZM19.05,14.84c0-2.2-1.74-3.48-4.76-3.48h-7.23v7.14h6.68c3.21,0,5.22-1.1,5.22-3.57v-.09h.09ZM15.48,24.63H7.05v7.42h8.7c3.21,0,5.13-1.19,5.13-3.66v-.09c0-2.29-1.65-3.66-5.4-3.66Z" fill="#002344" stroke-width="0"/><path d="M30.86,4.85h15.11c4.21,0,7.51,1.19,9.62,3.39,1.83,1.83,2.84,4.49,2.84,7.69v.09c0,5.4-2.93,8.88-7.14,10.44l8.06,12h-8.52l-7.14-10.81h-5.77v10.81h-7.33V4.85h.27ZM45.51,21.15c3.57,0,5.59-1.92,5.59-4.76v-.09c0-3.21-2.2-4.76-5.77-4.76h-7.23v9.62h7.42Z" fill="#002344" stroke-width="0"/><path d="M69.32,21.79v-.09c0-9.25,6.68-17.4,16.57-17.4,5.59,0,9.07,1.65,12.36,4.49l-2.38,2.84c-2.56-2.29-5.4-3.85-10.07-3.85-7.33,0-12.55,6.32-12.55,13.83v.09c0,8.06,5.04,14.01,13.1,14.01,3.75,0,7.33-1.47,9.52-3.39v-8.33h-10.07v-3.39h13.64v13.37c-3.11,2.75-7.69,5.13-13.28,5.13-10.35,0-16.85-7.69-16.85-17.31Z" fill="#002344" stroke-width="0"/><path d="M103.85,4.85h14.29c4.03,0,7.33,1.28,9.43,3.39,1.65,1.65,2.56,4.03,2.56,6.59v.09c0,5.59-3.75,8.88-8.97,9.8l10.16,13.74h-4.58l-9.62-13.1h-9.62v13.1h-3.66V4.85ZM117.76,21.98c4.95,0,8.52-2.56,8.52-6.96v-.09c0-4.12-3.11-6.59-8.42-6.59h-10.35v13.64s10.26,0,10.26,0Z" fill="#002344" stroke-width="0"/><path d="M173.62,24.45V4.85h3.75v19.32c0,7.23,3.85,11.36,10.16,11.36s9.98-3.75,9.98-11.08V4.85h3.75v19.23c0,9.8-5.49,14.93-13.83,14.93-8.24,0-13.83-5.13-13.83-14.56Z" fill="#002344" stroke-width="0"/><path d="M205.95,4.85h12.36c7.51,0,12.36,4.03,12.36,10.62v.09c0,7.23-5.95,10.99-13,10.99h-8.06v11.9h-3.75V4.85h.09ZM217.86,23.17c5.49,0,9.07-3.02,9.07-7.42v-.09c0-4.76-3.57-7.33-8.88-7.33h-8.33v14.84s8.15,0,8.15,0Z" fill="#002344" stroke-width="0"/><polygon points="133.79 24.73 133.79 30.95 151.46 41.21 151.65 41.3 156.96 38.19 133.79 24.73" fill="#009da5" stroke-width="0"/><polygon points="144.41 4.21 133.79 10.35 133.79 22.62 139.1 25.73 139.1 13.46 149.72 7.33 144.41 4.21" fill="#f47d20" stroke-width="0"/><polygon points="151.65 0 146.24 3.11 162.27 12.36 162.27 6.14 151.65 0" fill="#0066b3" stroke-width="0"/><polygon points="164.1 7.23 164.1 27.84 153.48 33.97 158.79 37.09 169.5 30.95 169.5 10.35 164.1 7.23" fill="#e31e30" stroke-width="0"/></g></svg>