<svg xmlns="http://www.w3.org/2000/svg" viewBox="0 0 774.09 274"><g id="Vrstva_2" data-name="Vrstva 2"><g id="Layer_1" data-name="Layer 1"><g opacity="0.57"><path d="M145.52,30c-13.12,0-21,6.76-26.39,14.47V0H99.78V114.81h19.35V67.94c0-12.9,7.84-20.6,19-20.6,11.51,0,18.07,7.39,18.07,20.29v47.18h19.35v-53C175.58,42.62,164.54,30,145.52,30ZM272,201.66c0,20.29-10.71,30.51-28.14,30.51-17.59,0-28.31-10.85-28.31-31.3V138.28H195.84v63.38c0,31.92,18.55,48.44,47.66,48.44s48.13-16.52,48.13-49.39V138.28H272ZM744.19,50.48V31.77H724.84v83h19.35V83.19c0-22,11.84-32.86,28.78-32.86h1.12V30.2C759.22,29.57,749.47,38.06,744.19,50.48ZM229.62,116.69c15.52,0,26.55-6.13,34.55-15.57l-11.36-9.9c-6.71,6.44-13.43,9.9-22.87,9.9-12.47,0-22.22-7.55-24.3-21.07h62c.16-1.89.32-3.62.32-5.35C268,50.8,254.41,30,227.55,30c-24.15,0-41.26,19.5-41.26,43.25v.31C186.29,99.24,205.16,116.69,229.62,116.69Zm-2.23-71.08c12.79,0,20.14,9.59,21.42,21.86H205.48C207.24,54.57,215.55,45.61,227.39,45.61ZM35.5,114.81H55.33V22.65h35.5V4.72H0V22.65H35.5ZM594.37,88.7,575.66,31.45H559L540.31,88.7,523.36,31.77H503.53l27.35,83.66h17.27l19-56.77,18.87,56.77h17.43l27.67-83.66H611.64ZM114.46,139.22c-4.48,4.41-6.88,11.32-6.88,20.45v6.13H96.87v15.88h10.71v66.69h19.35V181.68H149V166H126.61V161.4c0-8.65,3.84-12.58,11.19-12.58a34.48,34.48,0,0,1,11.36,2v-16a52.56,52.56,0,0,0-15.67-2.2C125.17,132.62,118.93,134.82,114.46,139.22ZM46.66,163.6c-25.91,0-45.1,19.66-45.1,43.4v.32c0,23.59,19,42.93,44.78,42.93,26.06,0,45.25-19.65,45.25-43.25v-.31C91.59,182.94,72.56,163.6,46.66,163.6Zm25.58,43.72c0,14.31-9.91,26.26-25.58,26.26-15,0-25.75-12.11-25.75-26.58v-.31c0-14.47,9.92-26.42,25.43-26.42,15.19,0,25.9,12.11,25.9,26.73Zm388.4-64.8H441.29v22.81H430.58v16.35h10.71v43.73c0,18.24,10.08,24.37,24.31,24.37A34,34,0,0,0,483,245.54V230a26.48,26.48,0,0,1-12,2.83c-6.55,0-10.39-3-10.39-10.38V181.68h22.71V165.33H460.64ZM502.9,73.44v-.31C502.9,49.38,483.87,30,458,30s-45.09,19.66-45.09,43.4v.32c0,23.59,19,42.93,44.77,42.93C483.71,116.69,502.9,97,502.9,73.44Zm-70.68,0v-.31c0-14.47,9.91-26.42,25.42-26.42,15.2,0,25.91,12.11,25.91,26.73v.32c0,14.31-9.92,26.26-25.59,26.26C442.93,100,432.22,87.91,432.22,73.44ZM531.64,227l-23.83-61.65H487l35.18,83.19c-3.19,7.08-6.55,9.44-12,9.44a24.06,24.06,0,0,1-11.35-3.15L492.3,269a40.45,40.45,0,0,0,20,5c13.59,0,21.11-6.29,27.82-23.27l33.59-85.4H553.55ZM399.88,152.59h20.79V134.5H399.88Zm.8,95.78H420v-83H400.68ZM672.88,30c-24.15,0-41.26,19.5-41.26,43.25v.31c0,25.64,18.87,43.09,43.33,43.09,15.52,0,26.55-6.13,34.55-15.57l-11.36-9.9c-6.72,6.44-13.43,9.9-22.87,9.9-12.47,0-22.22-7.55-24.3-21.07h62c.16-1.89.32-3.62.32-5.35C713.33,50.8,699.74,30,672.88,30ZM650.81,67.47c1.76-12.9,10.07-21.86,21.91-21.86,12.79,0,20.14,9.59,21.42,21.86ZM408.39,41.52c0-22.18-16.31-36.8-42.53-36.8H321.72V114.81h19.67V79.42h22.23c24.63,0,44.77-12.9,44.77-37.59Zm-20,.78c0,11.49-9.28,19.66-24.15,19.66H341.39V22.33h22.87c14.71,0,24.15,6.76,24.15,19.66ZM354.15,163.6c-13.12,0-20.95,6.76-26.39,14.47V165.33H308.41v83h19.35V201.5c0-12.9,7.84-20.6,19-20.6,11.52,0,18.07,7.39,18.07,20.29v47.18h19.35v-53C384.21,176.18,373.18,163.6,354.15,163.6Z" fill="#fff"/></g></g></g></svg>